<svg width="1020" height="814" viewBox="0 0 1020 814" fill="none" xmlns="http://www.w3.org/2000/svg">
<g opacity="0.35">
<g filter="url(#filter0_f_4004_110)">
<path d="M100 99.9999C841.319 367.795 408.883 620.547 100 713.449H919.907C312.248 443.472 666.715 191.992 919.907 99.9999H100Z" fill="#05C925" fill-opacity="0.6"/>
</g>
<g filter="url(#filter1_f_4004_110)">
<path d="M235.242 99.9999C732.132 358.836 442.28 617.59 235.242 714.612H773.797C434.307 436.537 632.343 189.006 773.797 99.9999H235.242Z" fill="#E9FBEF"/>
</g>
<g filter="url(#filter2_f_4004_110)">
<path d="M537.899 489.707C541.603 609.169 396.437 688.644 323.392 713.449H695.308C582.961 683.088 543.558 551.637 537.899 489.707Z" fill="white" fill-opacity="0.2"/>
</g>
<g filter="url(#filter3_f_4004_110)">
<path d="M537.899 323.354C541.603 203.893 396.437 124.417 323.392 99.6123L695.308 99.6123C582.961 129.974 543.558 261.424 537.899 323.354Z" fill="white" fill-opacity="0.2"/>
</g>
</g>
<defs>
<filter id="filter0_f_4004_110" x="0" y="0" width="1019.91" height="813.449" filterUnits="userSpaceOnUse" color-interpolation-filters="sRGB">
<feFlood flood-opacity="0" result="BackgroundImageFix"/>
<feBlend mode="normal" in="SourceGraphic" in2="BackgroundImageFix" result="shape"/>
<feGaussianBlur stdDeviation="50" result="effect1_foregroundBlur_4004_110"/>
</filter>
<filter id="filter1_f_4004_110" x="200.242" y="65" width="608.554" height="684.612" filterUnits="userSpaceOnUse" color-interpolation-filters="sRGB">
<feFlood flood-opacity="0" result="BackgroundImageFix"/>
<feBlend mode="normal" in="SourceGraphic" in2="BackgroundImageFix" result="shape"/>
<feGaussianBlur stdDeviation="17.5" result="effect1_foregroundBlur_4004_110"/>
</filter>
<filter id="filter2_f_4004_110" x="299.392" y="465.707" width="419.917" height="271.742" filterUnits="userSpaceOnUse" color-interpolation-filters="sRGB">
<feFlood flood-opacity="0" result="BackgroundImageFix"/>
<feBlend mode="normal" in="SourceGraphic" in2="BackgroundImageFix" result="shape"/>
<feGaussianBlur stdDeviation="12" result="effect1_foregroundBlur_4004_110"/>
</filter>
<filter id="filter3_f_4004_110" x="299.392" y="75.6123" width="419.917" height="271.742" filterUnits="userSpaceOnUse" color-interpolation-filters="sRGB">
<feFlood flood-opacity="0" result="BackgroundImageFix"/>
<feBlend mode="normal" in="SourceGraphic" in2="BackgroundImageFix" result="shape"/>
<feGaussianBlur stdDeviation="12" result="effect1_foregroundBlur_4004_110"/>
</filter>
</defs>
</svg>
