<svg width="24" height="24" viewBox="0 0 24 24" fill="none" xmlns="http://www.w3.org/2000/svg">
<mask id="mask0_4027_51" style="mask-type:alpha" maskUnits="userSpaceOnUse" x="0" y="0" width="24" height="24">
<rect width="24" height="24" fill="#D9D9D9"/>
</mask>
<g mask="url(#mask0_4027_51)">
<path d="M17.3463 15.5385C17.3463 17.0538 16.8245 18.3429 15.7808 19.4058C14.7373 20.4686 13.4642 21 11.9616 21C10.4462 21 9.16357 20.4686 8.11357 19.4058C7.06357 18.3429 6.53857 17.0538 6.53857 15.5385V6.80775C6.53857 5.75008 6.90232 4.851 7.62982 4.1105C8.35749 3.37017 9.25016 3 10.3078 3C11.3655 3 12.2581 3.37017 12.9856 4.1105C13.7132 4.851 14.0771 5.75008 14.0771 6.80775V15.077C14.0771 15.6642 13.8712 16.1699 13.4596 16.5943C13.0481 17.0186 12.5487 17.2308 11.9616 17.2308C11.3744 17.2308 10.8687 17.0218 10.4443 16.6038C10.02 16.1859 9.80782 15.677 9.80782 15.077V6.76925H10.8078V15.077C10.8078 15.3962 10.9171 15.6682 11.1356 15.8932C11.3542 16.1182 11.6232 16.2308 11.9423 16.2308C12.2617 16.2308 12.5306 16.1182 12.7491 15.8932C12.9677 15.6682 13.0771 15.3962 13.0771 15.077V6.7885C13.0732 6.0115 12.8049 5.3525 12.2721 4.8115C11.7394 4.2705 11.0847 4 10.3078 4C9.53082 4 8.87507 4.27375 8.34057 4.82125C7.80591 5.36858 7.53857 6.03075 7.53857 6.80775V15.5385C7.53474 16.7732 7.96232 17.8254 8.82132 18.6953C9.68016 19.5651 10.7269 20 11.9616 20C13.1796 20 14.2129 19.5651 15.0616 18.6953C15.9102 17.8254 16.3385 16.7732 16.3463 15.5385V6.76925H17.3463V15.5385Z" fill="#05C925"/>
</g>
</svg>
