<svg width="45" height="45" viewBox="0 0 45 45" fill="none" xmlns="http://www.w3.org/2000/svg">
<mask id="mask0_844_966" style="mask-type:alpha" maskUnits="userSpaceOnUse" x="0" y="0" width="45" height="45">
<rect width="45" height="45" fill="#D9D9D9"/>
</mask>
<g mask="url(#mask0_844_966)">
<path d="M35.4952 37.5C32.3342 37.5 29.0939 36.7086 25.7742 35.1258C22.4545 33.5427 19.3703 31.3208 16.5216 28.4602C13.6731 25.5998 11.4573 22.5158 9.87422 19.208C8.29141 15.9002 7.5 12.6658 7.5 9.50484C7.5 8.93203 7.6875 8.45469 8.0625 8.07281C8.4375 7.69094 8.90625 7.5 9.46875 7.5H14.1056C14.6153 7.5 15.06 7.66047 15.4397 7.98141C15.8197 8.30234 16.077 8.71406 16.2117 9.21656L17.1417 13.6875C17.2283 14.2116 17.2127 14.6695 17.0948 15.0614C16.977 15.4533 16.7691 15.7742 16.4709 16.0242L12.3572 19.8605C13.1262 21.257 13.9766 22.5545 14.9081 23.753C15.8397 24.9514 16.8331 26.0866 17.8884 27.1584C18.9772 28.2475 20.1491 29.2602 21.4041 30.1964C22.6588 31.1327 24.0361 32.0167 25.5361 32.8486L29.5458 28.7667C29.8511 28.4373 30.1942 28.2205 30.5752 28.1161C30.9561 28.0114 31.3773 27.9903 31.8389 28.0528L35.7834 28.8605C36.2931 28.9855 36.7067 29.2422 37.0242 29.6306C37.3414 30.0188 37.5 30.4641 37.5 30.9666V35.5312C37.5 36.0938 37.3091 36.5625 36.9272 36.9375C36.5453 37.3125 36.068 37.5 35.4952 37.5ZM11.4773 18.1008L15.0759 14.7909C15.1959 14.6947 15.2741 14.5625 15.3103 14.3944C15.3463 14.2259 15.3402 14.0697 15.292 13.9256L14.4591 9.95203C14.4109 9.75953 14.3269 9.61531 14.2069 9.51938C14.0866 9.42313 13.9303 9.375 13.7381 9.375H9.89062C9.74625 9.375 9.62609 9.42313 9.53016 9.51938C9.43391 9.61531 9.38578 9.73547 9.38578 9.87984C9.42172 11.1611 9.6225 12.4988 9.98813 13.8928C10.3534 15.2872 10.8498 16.6898 11.4773 18.1008ZM27.3211 33.7284C28.5877 34.3559 29.938 34.8198 31.372 35.1202C32.8058 35.4208 34.0552 35.5819 35.1202 35.6034C35.2645 35.6034 35.3847 35.5553 35.4806 35.4591C35.5769 35.3628 35.625 35.2427 35.625 35.0986V31.3341C35.625 31.1419 35.5769 30.9856 35.4806 30.8653C35.3847 30.7453 35.2405 30.6612 35.048 30.6131L31.5792 29.9025C31.4352 29.8544 31.3091 29.8484 31.2009 29.8847C31.0925 29.9206 30.9783 29.9988 30.8583 30.1191L27.3211 33.7284Z" fill="#05C925"/>
</g>
</svg>
