<svg width="24" height="24" viewBox="0 0 24 24" fill="none" xmlns="http://www.w3.org/2000/svg">
<mask id="mask0_4027_31" style="mask-type:alpha" maskUnits="userSpaceOnUse" x="0" y="0" width="24" height="24">
<rect width="24" height="24" fill="#D9D9D9"/>
</mask>
<g mask="url(#mask0_4027_31)">
<path d="M2 23.9999V21.9999H22V23.9999H2ZM6 16.8269H7.073L15.873 8.03262L15.3405 7.48062L14.7943 6.95362L6 15.7536V16.8269ZM5 17.8269V15.3269L16.2193 4.11337C16.3256 4.00687 16.4419 3.92928 16.5682 3.88062C16.6946 3.83195 16.8232 3.80762 16.9542 3.80762C17.0852 3.80762 17.2122 3.83195 17.335 3.88062C17.4578 3.92928 17.5743 4.00878 17.6845 4.11912L18.7135 5.15362C18.8237 5.26012 18.9022 5.37528 18.949 5.49912C18.9958 5.62312 19.0193 5.7512 19.0193 5.88337C19.0193 6.0072 18.9948 6.13328 18.946 6.26162C18.8973 6.38995 18.8198 6.5072 18.7135 6.61337L7.5 17.8269H5ZM15.873 8.03262L15.3405 7.48062L14.7943 6.95362L15.873 8.03262Z" fill="#05C925"/>
</g>
</svg>
