<svg width="24" height="24" viewBox="0 0 24 24" fill="none" xmlns="http://www.w3.org/2000/svg">
<mask id="mask0_4027_37" style="mask-type:alpha" maskUnits="userSpaceOnUse" x="0" y="0" width="24" height="24">
<rect width="24" height="24" fill="#D9D9D9"/>
</mask>
<g mask="url(#mask0_4027_37)">
<path d="M9.3845 8.3845V7.3845H17.6155V8.3845H9.3845ZM9.3845 11.1538V10.1538H17.6155V11.1538H9.3845ZM11.8463 21H6C5.43583 21 4.9615 20.8077 4.577 20.423C4.19233 20.0385 4 19.5642 4 19V16.2308H7V3H20V10.8905C19.8205 10.8955 19.6497 10.9143 19.4875 10.947C19.3253 10.9798 19.1628 11.0263 19 11.0865V4H8V16.2308H13.3462L12.3463 17.2308H5V19C5 19.2833 5.09583 19.5208 5.2875 19.7125C5.47917 19.9042 5.71667 20 6 20H11.8463V21ZM14.2308 21V18.7905L19.5635 13.4827C19.6622 13.3839 19.7647 13.3173 19.8712 13.2828C19.9776 13.2481 20.084 13.2308 20.1905 13.2308C20.3007 13.2308 20.4122 13.2522 20.525 13.2952C20.6378 13.3381 20.7372 13.4025 20.823 13.4885L21.748 14.4327C21.8302 14.5314 21.8927 14.634 21.9355 14.7405C21.9785 14.8468 22 14.9532 22 15.0595C22 15.166 21.9795 15.2734 21.9385 15.3818C21.8975 15.4901 21.834 15.5936 21.748 15.6923L16.4405 21H14.2308ZM15.1155 20.1155H16.0655L19.5328 16.6423L19.0635 16.1673L18.6077 15.6788L15.1155 19.1655V20.1155ZM19.0635 16.1673L18.6077 15.6788L19.5328 16.6423L19.0635 16.1673Z" fill="#05C925"/>
</g>
</svg>
