<svg width="24" height="24" viewBox="0 0 24 24" fill="none" xmlns="http://www.w3.org/2000/svg">
<mask id="mask0_4027_24" style="mask-type:alpha" maskUnits="userSpaceOnUse" x="0" y="0" width="24" height="24">
<rect width="24" height="24" fill="#D9D9D9"/>
</mask>
<g mask="url(#mask0_4027_24)">
<path d="M10.9808 14.5001H13.0193L12.4635 11.4096C12.7583 11.3071 13.0016 11.1264 13.1932 10.8674C13.3849 10.6084 13.4808 10.3193 13.4808 10.0001C13.4808 9.59115 13.3362 9.24215 13.047 8.95315C12.758 8.66398 12.409 8.5194 12 8.5194C11.591 8.5194 11.242 8.66398 10.953 8.95315C10.6638 9.24215 10.5192 9.59115 10.5192 10.0001C10.5192 10.3193 10.6151 10.6084 10.8067 10.8674C10.9984 11.1264 11.2417 11.3071 11.5365 11.4096L10.9808 14.5001ZM12 20.9616C9.991 20.3655 8.32208 19.1485 6.99325 17.3106C5.66442 15.4728 5 13.4026 5 11.1001V5.6924L12 3.07715L19 5.6924V11.1001C19 13.4026 18.3356 15.4728 17.0068 17.3106C15.6779 19.1485 14.009 20.3655 12 20.9616ZM12 19.9001C13.7333 19.3501 15.1667 18.2501 16.3 16.6001C17.4333 14.9501 18 13.1168 18 11.1001V6.37515L12 4.1444L6 6.37515V11.1001C6 13.1168 6.56667 14.9501 7.7 16.6001C8.83333 18.2501 10.2667 19.3501 12 19.9001Z" fill="#05C925"/>
</g>
</svg>
