<svg width="45" height="45" viewBox="0 0 45 45" fill="none" xmlns="http://www.w3.org/2000/svg">
<mask id="mask0_15_56" style="mask-type:alpha" maskUnits="userSpaceOnUse" x="0" y="0" width="45" height="45">
<rect width="45" height="45" fill="#D9D9D9"/>
</mask>
<g mask="url(#mask0_15_56)">
<path d="M38.6541 36.202L32.8847 30.4327H15C14.2069 30.4327 13.5278 30.1502 12.9628 29.5852C12.3978 29.0205 12.1153 28.3414 12.1153 27.548V27.1153H32.3077C33.1405 27.1153 33.8536 26.8188 34.447 26.2256C35.0402 25.6325 35.3367 24.9195 35.3367 24.0867V11.25H35.7694C36.5625 11.25 37.2416 11.5325 37.8066 12.0975C38.3716 12.6622 38.6541 13.3412 38.6541 14.1347V36.202ZM8.22093 24.5948L11.3259 21.4903H28.5577C28.8942 21.4903 29.1706 21.3822 29.3869 21.1659C29.6034 20.9497 29.7117 20.6733 29.7117 20.3367V8.65406C29.7117 8.3175 29.6034 8.04094 29.3869 7.82437C29.1706 7.60812 28.8942 7.5 28.5577 7.5H9.37499C9.03843 7.5 8.76203 7.60812 8.54578 7.82437C8.32921 8.04094 8.22093 8.3175 8.22093 8.65406V24.5948ZM6.34593 29.1347V8.65406C6.34593 7.82094 6.64265 7.10781 7.23609 6.51469C7.82921 5.92156 8.54218 5.625 9.37499 5.625H28.5577C29.3905 5.625 30.1036 5.92156 30.697 6.51469C31.2902 7.10781 31.5867 7.82094 31.5867 8.65406V20.3367C31.5867 21.1695 31.2902 21.8825 30.697 22.4756C30.1036 23.0688 29.3905 23.3653 28.5577 23.3653H12.1153L6.34593 29.1347Z" fill="#05C925"/>
</g>
</svg>
