<svg width="45" height="45" viewBox="0 0 45 45" fill="none" xmlns="http://www.w3.org/2000/svg">
<mask id="mask0_844_586" style="mask-type:alpha" maskUnits="userSpaceOnUse" x="0" y="0" width="45" height="45">
<rect width="45" height="45" fill="#D9D9D9"/>
</mask>
<g mask="url(#mask0_844_586)">
<path d="M22.5 41.25L22.0312 35.625H21.5625C17.125 35.625 13.3594 34.0781 10.2656 30.9844C7.17188 27.8906 5.625 24.125 5.625 19.6875C5.625 15.25 7.17188 11.4844 10.2656 8.39063C13.3594 5.29688 17.125 3.75 21.5625 3.75C23.7812 3.75 25.8516 4.16406 27.7734 4.99219C29.6953 5.82031 31.3828 6.96094 32.8359 8.41406C34.2891 9.86719 35.4297 11.5547 36.2578 13.4766C37.0859 15.3984 37.5 17.4688 37.5 19.6875C37.5 22.0312 37.1172 24.2812 36.3516 26.4375C35.5859 28.5938 34.5391 30.5938 33.2109 32.4375C31.8828 34.2812 30.3047 35.9531 28.4766 37.4531C26.6484 38.9531 24.6562 40.2188 22.5 41.25ZM26.25 34.4062C28.4688 32.5312 30.2734 30.3359 31.6641 27.8203C33.0547 25.3047 33.75 22.5938 33.75 19.6875C33.75 16.2812 32.5703 13.3984 30.2109 11.0391C27.8516 8.67969 24.9688 7.5 21.5625 7.5C18.1562 7.5 15.2734 8.67969 12.9141 11.0391C10.5547 13.3984 9.375 16.2812 9.375 19.6875C9.375 23.0938 10.5547 25.9766 12.9141 28.3359C15.2734 30.6953 18.1562 31.875 21.5625 31.875H26.25V34.4062ZM22.875 29.3906C23.25 29.0156 23.4375 28.5625 23.4375 28.0312C23.4375 27.5 23.25 27.0469 22.875 26.6719C22.5 26.2969 22.0469 26.1094 21.5156 26.1094C20.9844 26.1094 20.5312 26.2969 20.1562 26.6719C19.7812 27.0469 19.5938 27.5 19.5938 28.0312C19.5938 28.5625 19.7812 29.0156 20.1562 29.3906C20.5312 29.7656 20.9844 29.9531 21.5156 29.9531C22.0469 29.9531 22.5 29.7656 22.875 29.3906ZM20.1562 24H22.9688C22.9688 23.0625 23.0625 22.4062 23.25 22.0312C23.4375 21.6562 24.0312 20.9688 25.0312 19.9688C25.5938 19.4063 26.0625 18.7969 26.4375 18.1406C26.8125 17.4844 27 16.7812 27 16.0312C27 14.4375 26.4609 13.2422 25.3828 12.4453C24.3047 11.6484 23.0312 11.25 21.5625 11.25C20.1875 11.25 19.0312 11.6328 18.0938 12.3984C17.1562 13.1641 16.5 14.0938 16.125 15.1875L18.75 16.2188C18.9062 15.6875 19.2031 15.1641 19.6406 14.6484C20.0781 14.1328 20.7188 13.875 21.5625 13.875C22.4062 13.875 23.0391 14.1094 23.4609 14.5781C23.8828 15.0469 24.0938 15.5625 24.0938 16.125C24.0938 16.6562 23.9375 17.1328 23.625 17.5547C23.3125 17.9766 22.9375 18.4062 22.5 18.8438C21.4062 19.7812 20.7422 20.5234 20.5078 21.0703C20.2734 21.6172 20.1562 22.5938 20.1562 24Z" fill="#04B120"/>
</g>
</svg>
