<svg width="45" height="45" viewBox="0 0 45 45" fill="none" xmlns="http://www.w3.org/2000/svg">
<mask id="mask0_844_930" style="mask-type:alpha" maskUnits="userSpaceOnUse" x="0" y="0" width="45" height="45">
<rect width="45" height="45" fill="#D9D9D9"/>
</mask>
<g mask="url(#mask0_844_930)">
<path d="M15.9698 35.625C15.6982 35.625 15.444 35.5631 15.2071 35.4394C14.9706 35.3156 14.7862 35.1216 14.654 34.8572L11.3582 28.9181H13.7165L15.4471 32.2355H19.2187V30.7931H16.3195L14.5889 27.4758H10.5431L8.15995 23.257C8.09745 23.1248 8.0487 22.9987 8.0137 22.8787C7.97901 22.7584 7.96167 22.6322 7.96167 22.5C7.96167 22.4231 8.02776 22.1708 8.15995 21.743L10.5431 17.5242H14.5889L16.3195 14.2069H19.2187V12.7645H15.4471L13.7165 16.0819H11.3582L14.654 10.1428C14.7862 9.87844 14.9706 9.68438 15.2071 9.56063C15.444 9.43688 15.6982 9.375 15.9698 9.375H20.2645C20.6995 9.375 21.0606 9.51859 21.3478 9.80578C21.6353 10.093 21.779 10.4542 21.779 10.8895V17.6681H18.9304L17.4881 19.1105H21.779V24.2306H18.0867L16.4278 20.9494H12.9445L11.5021 22.3917H15.5554L17.2139 25.673H21.779V34.1105C21.779 34.5458 21.6353 34.907 21.3478 35.1942C21.0606 35.4814 20.6995 35.625 20.2645 35.625H15.9698ZM24.7354 35.625C24.3004 35.625 23.9393 35.4814 23.6521 35.1942C23.3646 34.907 23.2209 34.5458 23.2209 34.1105V25.673H27.786L29.4445 22.3917H33.4978L32.0554 20.9494H28.5721L26.8771 24.2306H23.2209V19.1105H27.5118L26.0695 17.6681H23.2209V10.8895C23.2209 10.4542 23.3646 10.093 23.6521 9.80578C23.9393 9.51859 24.3004 9.375 24.7354 9.375H29.0301C29.3017 9.375 29.5559 9.43688 29.7928 9.56063C30.0293 9.68438 30.2137 9.87844 30.3459 10.1428L33.6417 16.0819H31.2834L29.5528 12.7645H25.7812V14.2069H28.6804L30.375 17.5242H34.4568L36.8399 21.743C36.9024 21.8752 36.9512 22.0013 36.9862 22.1213C37.0209 22.2416 37.0382 22.3678 37.0382 22.5C37.0382 22.5769 36.9721 22.8292 36.8399 23.257L34.4568 27.4758H30.375L28.6804 30.7931H25.7812V32.2355H29.5528L31.2834 28.9181H33.6417L30.3459 34.8572C30.2137 35.1216 30.0293 35.3156 29.7928 35.4394C29.5559 35.5631 29.3017 35.625 29.0301 35.625H24.7354Z" fill="#05C925"/>
</g>
</svg>
