<svg width="45" height="45" viewBox="0 0 45 45" fill="none" xmlns="http://www.w3.org/2000/svg">
<mask id="mask0_844_986" style="mask-type:alpha" maskUnits="userSpaceOnUse" x="0" y="0" width="45" height="45">
<rect width="45" height="45" fill="#D9D9D9"/>
</mask>
<g mask="url(#mask0_844_986)">
<path d="M8.65406 35.625C7.79094 35.625 7.07031 35.3359 6.49219 34.7578C5.91406 34.1797 5.625 33.4591 5.625 32.5959V12.4041C5.625 11.5409 5.91406 10.8203 6.49219 10.2422C7.07031 9.66406 7.79094 9.375 8.65406 9.375H36.3459C37.2091 9.375 37.9297 9.66406 38.5078 10.2422C39.0859 10.8203 39.375 11.5409 39.375 12.4041V32.5959C39.375 33.4591 39.0859 34.1797 38.5078 34.7578C37.9297 35.3359 37.2091 35.625 36.3459 35.625H8.65406ZM22.5 22.7166L7.5 12.9084V32.5959C7.5 32.9325 7.60812 33.2091 7.82437 33.4256C8.04094 33.6419 8.3175 33.75 8.65406 33.75H36.3459C36.6825 33.75 36.9591 33.6419 37.1756 33.4256C37.3919 33.2091 37.5 32.9325 37.5 32.5959V12.9084L22.5 22.7166ZM22.5 20.625L36.923 11.25H8.07703L22.5 20.625ZM7.5 12.9084V11.25V32.5959C7.5 32.9325 7.60812 33.2091 7.82437 33.4256C8.04094 33.6419 8.3175 33.75 8.65406 33.75H7.5V12.9084Z" fill="#05C925"/>
</g>
</svg>
