<svg width="45" height="45" viewBox="0 0 45 45" fill="none" xmlns="http://www.w3.org/2000/svg">
<mask id="mask0_14_32" style="mask-type:alpha" maskUnits="userSpaceOnUse" x="0" y="0" width="45" height="45">
<rect width="45" height="45" fill="#05C925"/>
</mask>
<g mask="url(#mask0_14_32)">
<path d="M8.65406 35.625C7.79094 35.625 7.07031 35.3359 6.49219 34.7578C5.91406 34.1797 5.625 33.4591 5.625 32.5959V12.4041C5.625 11.5409 5.91406 10.8203 6.49219 10.2422C7.07031 9.66406 7.79094 9.375 8.65406 9.375H17.993L21.743 13.125H36.3459C37.2091 13.125 37.9297 13.4141 38.5078 13.9922C39.0859 14.5703 39.375 15.2909 39.375 16.1541V20.5744C39.0697 20.4687 38.7591 20.4009 38.4431 20.3709C38.1269 20.3409 37.8125 20.3367 37.5 20.3583V16.1541C37.5 15.8653 37.3798 15.6008 37.1395 15.3605C36.8992 15.1202 36.6347 15 36.3459 15H20.9892L17.2392 11.25H8.65406C8.3175 11.25 8.04094 11.3581 7.82437 11.5744C7.60812 11.7909 7.5 12.0675 7.5 12.4041V32.5959C7.5 32.8847 7.62016 33.1492 7.86047 33.3895C8.10078 33.6298 8.36531 33.75 8.65406 33.75H22.2548L22.2117 33.7931V35.625H8.65406ZM26.6827 39.375V35.2322L36.6816 25.2802C36.8666 25.0948 37.0589 24.9698 37.2586 24.9052C37.458 24.8402 37.6575 24.8077 37.8572 24.8077C38.0638 24.8077 38.2728 24.848 38.4844 24.9286C38.6959 25.0089 38.8822 25.1297 39.0431 25.2909L40.7775 27.0614C40.9316 27.2464 41.0487 27.4388 41.1291 27.6384C41.2097 27.8378 41.25 28.0372 41.25 28.2366C41.25 28.4363 41.2116 28.6377 41.1347 28.8408C41.0578 29.0439 40.9387 29.238 40.7775 29.423L30.8259 39.375H26.6827ZM28.3416 37.7166H30.1228L36.6239 31.2042L35.7441 30.3136L34.8895 29.3977L28.3416 35.9353V37.7166ZM35.7441 30.3136L34.8895 29.3977L36.6239 31.2042L35.7441 30.3136Z" fill="#05C925"/>
</g>
</svg>
