<svg width="26" height="26" viewBox="0 0 26 26" fill="none" xmlns="http://www.w3.org/2000/svg">
<mask id="mask0_713_227" style="mask-type:alpha" maskUnits="userSpaceOnUse" x="0" y="0" width="26" height="26">
<rect width="26" height="26" fill="#D9D9D9"/>
</mask>
<g mask="url(#mask0_713_227)">
<path d="M13.2166 14.0834L12.2416 15.0584C12.043 15.257 11.9437 15.5097 11.9437 15.8167C11.9437 16.1236 12.043 16.3764 12.2416 16.575C12.4402 16.7736 12.693 16.8729 13 16.8729C13.3069 16.8729 13.5597 16.7736 13.7583 16.575L16.575 13.7584C16.7916 13.5417 16.9 13.2889 16.9 13C16.9 12.7111 16.7916 12.4584 16.575 12.2417L13.7583 9.42502C13.5597 9.22641 13.3069 9.1271 13 9.1271C12.693 9.1271 12.4402 9.22641 12.2416 9.42502C12.043 9.62363 11.9437 9.87641 11.9437 10.1834C11.9437 10.4903 12.043 10.7431 12.2416 10.9417L13.2166 11.9167H9.74996C9.44301 11.9167 9.18572 12.0205 8.97808 12.2281C8.77044 12.4358 8.66663 12.6931 8.66663 13C8.66663 13.307 8.77044 13.5643 8.97808 13.7719C9.18572 13.9795 9.44301 14.0834 9.74996 14.0834H13.2166ZM13 23.8334C11.5013 23.8334 10.093 23.549 8.77496 22.9802C7.4569 22.4115 6.31038 21.6396 5.33538 20.6646C4.36038 19.6896 3.5885 18.5431 3.01975 17.225C2.451 15.907 2.16663 14.4986 2.16663 13C2.16663 11.5014 2.451 10.0931 3.01975 8.77502C3.5885 7.45696 4.36038 6.31044 5.33538 5.33544C6.31038 4.36044 7.4569 3.58856 8.77496 3.01981C10.093 2.45106 11.5013 2.16669 13 2.16669C14.4986 2.16669 15.9069 2.45106 17.225 3.01981C18.543 3.58856 19.6895 4.36044 20.6645 5.33544C21.6395 6.31044 22.4114 7.45696 22.9802 8.77502C23.5489 10.0931 23.8333 11.5014 23.8333 13C23.8333 14.4986 23.5489 15.907 22.9802 17.225C22.4114 18.5431 21.6395 19.6896 20.6645 20.6646C19.6895 21.6396 18.543 22.4115 17.225 22.9802C15.9069 23.549 14.4986 23.8334 13 23.8334ZM13 21.6667C15.4194 21.6667 17.4687 20.8271 19.1479 19.1479C20.827 17.4688 21.6666 15.4195 21.6666 13C21.6666 10.5806 20.827 8.53127 19.1479 6.8521C17.4687 5.17294 15.4194 4.33335 13 4.33335C10.5805 4.33335 8.53121 5.17294 6.85204 6.8521C5.17288 8.53127 4.33329 10.5806 4.33329 13C4.33329 15.4195 5.17288 17.4688 6.85204 19.1479C8.53121 20.8271 10.5805 21.6667 13 21.6667Z" fill="white"/>
</g>
</svg>
