<svg width="45" height="45" viewBox="0 0 45 45" fill="none" xmlns="http://www.w3.org/2000/svg">
<mask id="mask0_844_944" style="mask-type:alpha" maskUnits="userSpaceOnUse" x="0" y="0" width="45" height="45">
<rect width="45" height="45" fill="#D9D9D9"/>
</mask>
<g mask="url(#mask0_844_944)">
<path d="M24.6439 21.1102C25.2342 20.5198 25.5294 19.8053 25.5294 18.9666C25.5294 18.1275 25.2342 17.4128 24.6439 16.8225C24.0539 16.2325 23.3394 15.9375 22.5003 15.9375C21.6612 15.9375 20.9467 16.2325 20.3567 16.8225C19.7664 17.4128 19.4712 18.1275 19.4712 18.9666C19.4712 19.8053 19.7664 20.5198 20.3567 21.1102C20.9467 21.7002 21.6612 21.9952 22.5003 21.9952C23.3394 21.9952 24.0539 21.7002 24.6439 21.1102ZM22.5003 36.8944C26.0244 33.8269 28.8104 30.7072 30.8586 27.5353C32.9067 24.3634 33.9308 21.6202 33.9308 19.3055C33.9308 15.8752 32.8448 13.0439 30.6729 10.8117C28.5011 8.57984 25.7769 7.46391 22.5003 7.46391C19.2237 7.46391 16.4995 8.57984 14.3276 10.8117C12.1558 13.0439 11.0698 15.8752 11.0698 19.3055C11.0698 21.6202 12.0939 24.3634 14.142 27.5353C16.1901 30.7072 18.9762 33.8269 22.5003 36.8944ZM22.5003 39.4111C18.094 35.5145 14.775 31.8805 12.5431 28.5089C10.3109 25.1377 9.19482 22.0698 9.19482 19.3055C9.19482 15.3389 10.4864 12.0672 13.0695 9.49031C15.6523 6.91344 18.7959 5.625 22.5003 5.625C26.2047 5.625 29.3483 6.91344 31.9311 9.49031C34.5142 12.0672 35.8058 15.3389 35.8058 19.3055C35.8058 22.0698 34.6897 25.1377 32.4575 28.5089C30.2256 31.8805 26.9065 35.5145 22.5003 39.4111Z" fill="#05C925"/>
</g>
</svg>
