<svg width="45" height="45" viewBox="0 0 45 45" fill="none" xmlns="http://www.w3.org/2000/svg">
<mask id="mask0_844_912" style="mask-type:alpha" maskUnits="userSpaceOnUse" x="0" y="0" width="45" height="45">
<rect width="45" height="45" fill="#05C925"/>
</mask>
<g mask="url(#mask0_844_912)">
<path d="M9.72839 21.0324L14.3221 22.9758C14.9037 21.8124 15.5371 20.6863 16.2225 19.5975C16.9075 18.5085 17.6634 17.4496 18.4903 16.4208L15.6131 15.8691C15.4206 15.821 15.2342 15.8269 15.0539 15.8869C14.8735 15.9472 14.7114 16.0494 14.5673 16.1935L9.72839 21.0324ZM15.8076 24.166L21.1153 29.4628C22.5962 28.7944 24.0867 27.9446 25.5867 26.9133C27.0867 25.8821 28.5289 24.6742 29.9132 23.2899C31.9326 21.2705 33.4753 19.1172 34.5412 16.83C35.6075 14.5428 36.2067 11.9016 36.3389 8.90628C33.3435 9.03847 30.7065 9.63769 28.4278 10.7039C26.149 11.7699 24 13.3125 21.9806 15.3319C20.5962 16.7163 19.3884 18.1646 18.3571 19.6768C17.3259 21.1886 16.476 22.685 15.8076 24.166ZM24.696 17.7314C24.696 16.9611 24.9712 16.3007 25.5215 15.75C26.0721 15.1994 26.7404 14.9241 27.5264 14.9241C28.3123 14.9241 28.9806 15.1994 29.5312 15.75C30.0818 16.3007 30.3571 16.9611 30.3571 17.7314C30.3571 18.5018 30.0818 19.1622 29.5312 19.7128C28.9806 20.2632 28.3123 20.5383 27.5264 20.5383C26.7404 20.5383 26.0721 20.2632 25.5215 19.7128C24.9712 19.1622 24.696 18.5018 24.696 17.7314ZM24.2128 35.5528L29.0517 30.7139C29.1957 30.5699 29.2979 30.4077 29.3582 30.2274C29.4182 30.0471 29.4242 29.8607 29.3761 29.6682L28.8243 26.791C27.7956 27.6178 26.7367 28.3721 25.6476 29.0536C24.5589 29.7352 23.4328 30.3668 22.2693 30.9483L24.2128 35.5528ZM38.0915 7.17894C38.3006 10.6236 37.8131 13.7925 36.629 16.6857C35.4453 19.5788 33.6009 22.2777 31.0959 24.7824C30.9759 24.9027 30.8678 25.011 30.7715 25.1072C30.6753 25.2032 30.5671 25.3113 30.4471 25.4316L31.2042 29.2791C31.3051 29.7838 31.2859 30.2728 31.1465 30.7463C31.0071 31.22 30.7548 31.6396 30.3895 32.0049L23.5603 38.798L20.452 31.4747L13.7704 24.7932L6.44714 21.6493L13.2295 14.8557C13.5948 14.4903 14.016 14.2319 14.4932 14.0803C14.9704 13.9291 15.4615 13.9039 15.9665 14.0049L19.8857 14.798C20.006 14.678 20.1082 14.5699 20.1923 14.4736C20.2764 14.3774 20.3785 14.2692 20.4989 14.1492C23.0035 11.6442 25.7006 9.80409 28.59 8.62878C31.4793 7.45316 34.6465 6.96988 38.0915 7.17894ZM9.5948 30.3136C10.3279 29.5805 11.2192 29.2182 12.2685 29.2266C13.3179 29.235 14.2092 29.6058 14.9423 30.3389C15.6754 31.0721 16.0403 31.9633 16.0368 33.0127C16.0331 34.0621 15.6646 34.9533 14.9315 35.6864C14.2943 36.3233 13.2721 36.8689 11.865 37.3233C10.4575 37.7777 8.82933 38.0914 6.98058 38.2646C7.15371 36.4158 7.47339 34.7878 7.93964 33.3807C8.40621 31.9732 8.95793 30.9508 9.5948 30.3136ZM10.9326 31.6768C10.572 32.0374 10.2354 32.6257 9.92292 33.4416C9.61042 34.2578 9.40371 35.0999 9.30277 35.9677C10.1706 35.8668 11.0126 35.6558 11.8289 35.3349C12.6448 35.0139 13.2331 34.6732 13.5937 34.3125C13.9687 33.9375 14.1598 33.4903 14.167 32.971C14.1742 32.4519 13.9903 32.0049 13.6153 31.6299C13.2403 31.2549 12.7932 31.0752 12.2742 31.0908C11.7548 31.1064 11.3076 31.3018 10.9326 31.6768Z" fill="#05C925"/>
</g>
</svg>
