<svg width="45" height="45" viewBox="0 0 45 45" fill="none" xmlns="http://www.w3.org/2000/svg">
<mask id="mask0_14_44" style="mask-type:alpha" maskUnits="userSpaceOnUse" x="0" y="0" width="45" height="45">
<rect width="45" height="45" fill="#05C925"/>
</mask>
<g mask="url(#mask0_14_44)">
<path d="M21.5625 30.4327H23.4375V21.6202L27.4111 25.5938L28.7381 24.2667L22.5 18.0291L16.3341 24.1945L17.6611 25.5216L21.5625 21.6202V30.4327ZM8.65406 35.625C7.79094 35.625 7.07031 35.3359 6.49219 34.7578C5.91406 34.1797 5.625 33.4591 5.625 32.5959V12.4041C5.625 11.5409 5.91406 10.8203 6.49219 10.2422C7.07031 9.66406 7.79094 9.375 8.65406 9.375H17.993L21.743 13.125H36.3459C37.2091 13.125 37.9297 13.4141 38.5078 13.9922C39.0859 14.5703 39.375 15.2909 39.375 16.1541V32.5959C39.375 33.4591 39.0859 34.1797 38.5078 34.7578C37.9297 35.3359 37.2091 35.625 36.3459 35.625H8.65406ZM8.65406 33.75H36.3459C36.6825 33.75 36.9591 33.6419 37.1756 33.4256C37.3919 33.2091 37.5 32.9325 37.5 32.5959V16.1541C37.5 15.8175 37.3919 15.5409 37.1756 15.3244C36.9591 15.1081 36.6825 15 36.3459 15H20.9892L17.2392 11.25H8.65406C8.3175 11.25 8.04094 11.3581 7.82437 11.5744C7.60812 11.7909 7.5 12.0675 7.5 12.4041V32.5959C7.5 32.9325 7.60812 33.2091 7.82437 33.4256C8.04094 33.6419 8.3175 33.75 8.65406 33.75Z" fill="#05C925"/>
</g>
</svg>
